<svg width="60" height="60" viewBox="0 0 60 60" fill="none" xmlns="http://www.w3.org/2000/svg">
<g clip-path="url(#clip0_198_2)">
<rect width="60" height="60" rx="30" fill="#0D1117"/>
<path d="M19 30.5H17V32.5V54.7299L15 53.0633V8.73607L16.481 7.99559L121 7.01878V9.5H33.5H19H17V11.5V26.5V28.5H19H32.7639L31.7639 30.5H19Z" stroke="white" stroke-width="4"/>
<path d="M25.25 66.25V19.375L31.1875 16.5625H31.5V31.5938C32.4167 30.9479 33.4583 30.625 34.625 30.625H41.8125C48.0625 30.625 51.1875 33.75 51.1875 40V63.4375L45.25 66.25H44.9375V40C44.9375 37.5 43.8958 36.25 41.8125 36.25H34.625C32.5417 36.25 31.5 37.5 31.5 40V63.4375L25.5625 66.25H25.25Z" fill="#A700FF"/>
</g>
<defs>
<clipPath id="clip0_198_2">
<rect width="60" height="60" rx="30" fill="white"/>
</clipPath>
</defs>
</svg>
